<svg xmlns="http://www.w3.org/2000/svg" viewBox="0 0 8.12 8.12"><defs><style>.cls-1{fill:#1dacf6;}</style></defs><title>list-image2</title><g id="Capa_2" data-name="Capa 2"><g id="Layer_1" data-name="Layer 1"><path class="cls-1" d="M8,4.06c0-.36.24-.75.15-1.08s-.49-.56-.67-.86-.17-.76-.42-1S6.32.87,6,.69,5.49.11,5.14,0,4.42.17,4.06.17h0C3.7.17,3.31-.07,3,0s-.56.49-.86.67-.76.17-1,.42-.24.7-.42,1S.11,2.63,0,3s.15.72.15,1.08S-.07,4.81,0,5.14s.49.56.67.86.17.76.42,1,.7.24,1,.42S2.63,8,3,8.1,3.7,8,4.06,8h0c.36,0,.75.24,1.08.15s.56-.49.86-.67S6.77,7.27,7,7s.24-.7.42-1,.58-.52.67-.86S8,4.42,8,4.06ZM4.06,7.59A3.53,3.53,0,1,1,7.59,4.06,3.54,3.54,0,0,1,4.06,7.59Z"/><circle class="cls-1" cx="4.06" cy="4.06" r="2.28"/></g></g></svg>